PathFileType	4	(X/Y/Z)	D:\TRACE\spotREDO_2-26-24\spot_justBody_Motion_3_3-platform.trc
DataRate	CameraRate	NumFrames	NumMarkers	Units	OrigDataRate	OrigDataStartFrame	OrigNumFrames
100.00	100.00	      49	5	mm	100.00	6126	      7000
Frame#	Time	Left_Front			Right_Front			Left_Aft			Right_Aft			Post			
		X1	Y1	Z1	X2	Y2	Z2	X3	Y3	Z3	X4	Y4	Z4	X5	Y5	Z5	

6126	61.250	-704.47437	7.60090	-572.72888	710.89307	14.72320	-488.08353	-775.30994	-7.72206	646.01105	794.92065	-0.02219	649.83838	5.00486	642.26874	-967.85815	
6127	61.260	-704.65485	7.80728	-572.65924	710.66223	14.83104	-487.84940	-775.56213	-7.97462	646.13123	794.47601	-0.38682	649.94543	4.96903	642.75696	-967.55035	
6128	61.270	-704.77942	7.94111	-572.57196	710.28473	15.04945	-487.92834	-775.93555	-8.26330	646.19531	794.15308	-0.76415	649.97333	4.93373	642.99335	-967.18390	
6129	61.280	-705.03699	8.08341	-572.49817	709.85974	15.24866	-487.85028	-776.20807	-8.38888	646.21570	793.80890	-0.99644	649.96326	4.42942	643.28192	-966.66376	
6130	61.290	-705.25690	8.27679	-572.43732	709.42609	15.46933	-487.80313	-776.56439	-8.55326	646.26904	793.65338	-1.17019	649.91498	3.98529	643.71051	-966.54340	
6131	61.300	-705.58258	8.55814	-572.37402	709.26843	15.68852	-487.69812	-776.83441	-8.68459	646.36670	793.30878	-1.62927	649.49182	3.50028	644.27032	-965.90363	
6132	61.310	-705.92365	8.93623	-572.33453	708.78394	16.13998	-487.81540	-777.13757	-9.04469	646.45386	793.13763	-1.61492	650.04633	3.23751	644.79492	-965.08063	
6133	61.320	-706.26428	9.26482	-572.21399	708.69025	16.32379	-487.70187	-777.54980	-9.29647	646.43854	792.84778	-1.87965	650.27240	3.10060	645.11792	-964.55121	
6134	61.330	-706.57397	9.44499	-572.20166	708.47736	16.41880	-487.69339	-777.79486	-9.47100	646.48682	792.72852	-2.10506	650.33057	2.75532	645.38025	-964.23175	
6135	61.340	-706.85229	9.59856	-572.11646	708.29645	16.50286	-487.41385	-778.04059	-9.67761	646.49084	792.48273	-2.38031	650.40143	2.56221	645.71997	-963.92584	
6136	61.350	-707.02667	9.78468	-572.03937	708.18347	16.59832	-487.34573	-778.18402	-9.80800	646.54285	792.16785	-2.69570	650.40686	2.35573	646.10034	-963.75342	
6137	61.360	-707.15717	9.90931	-572.00861	707.88721	16.64524	-487.32523	-778.37939	-10.01388	646.62280	791.92944	-2.89600	650.40704	2.20962	646.41522	-963.61041	
6138	61.370	-707.41901	10.08538	-572.02271	707.43170	17.07595	-487.34158	-778.68585	-10.32232	646.65015	791.55060	-3.01260	650.50146	1.88846	646.71295	-963.58148	
6139	61.380	-707.70215	10.29237	-571.89325	707.07385	17.22861	-487.25629	-779.02203	-10.73329	646.61932	791.28253	-3.20160	650.47205	1.44036	647.00409	-963.62549	
6140	61.390	-707.89441	10.41251	-571.83875	706.82648	17.46498	-487.23730	-779.14612	-10.84917	646.70129	791.05688	-3.31418	650.47656	1.08645	647.30054	-963.57153	
6141	61.400	-708.08301	10.53301	-571.77161	706.66266	17.43665	-487.23694	-779.39764	-10.94562	646.67072	790.85339	-3.45076	650.58716	1.42113	647.46625	-963.23840	
6142	61.410	-708.28088	10.76673	-571.71368	706.53314	17.60031	-487.18237	-779.38049	-11.05734	646.73474	790.63739	-3.69313	650.70032	0.90644	647.69379	-963.34070	
6143	61.420	-708.54822	10.93977	-571.62878	706.32172	17.45440	-487.06155	-779.41876	-11.16203	646.92578	790.41608	-3.82008	650.77484	0.67364	647.94000	-963.11829	
6144	61.430	-708.68347	11.07561	-571.58832	706.05811	17.57943	-487.01553	-779.97247	-11.57202	646.81415	790.26898	-3.95503	650.85535	0.36791	648.26935	-962.70483	
6145	61.440	-708.97894	11.29551	-571.53088	705.90924	17.68958	-486.98013	-780.31421	-11.69002	646.83093	790.14349	-4.15505	650.87085	0.08577	648.68011	-962.26459	
6146	61.450	-709.22748	11.34850	-571.51740	705.83093	17.78730	-486.93011	-780.43195	-11.64124	646.93402	790.12897	-4.59928	650.61115	0.11528	648.81592	-961.91766	
6147	61.460	-709.44812	11.53955	-571.55182	705.54517	17.98873	-487.04807	-780.67450	-11.77195	646.95105	789.93213	-4.76469	650.51947	-0.03919	648.97455	-961.60284	
6148	61.470	-709.71075	11.61858	-571.55994	705.34271	18.09989	-487.04129	-780.87292	-11.85610	647.00256	789.75922	-4.88746	650.43207	-0.21887	649.08429	-961.39655	
6149	61.480	-709.95502	11.71602	-571.55328	705.13165	18.14032	-486.97910	-780.99603	-11.99466	647.03052	789.50842	-4.95261	650.47052	-0.46394	649.23224	-961.24622	
6150	61.490	-710.16388	11.80811	-571.50476	705.03009	18.09352	-486.83331	-781.09027	-12.03784	647.05096	789.32880	-4.93277	650.49933	-0.65261	649.29724	-961.21747	
6151	61.500	-710.31555	11.86030	-571.49261	704.80023	18.28765	-486.90778	-781.18536	-12.09553	647.07263	789.15204	-4.98791	650.51892	-0.76988	649.35095	-961.20721	
6152	61.510	-710.43243	11.87318	-571.46191	704.61987	18.36217	-486.91238	-781.31781	-12.16792	647.10358	788.96362	-5.06931	650.39380	-0.93358	649.44366	-961.36786	
6153	61.520	-710.51202	11.92048	-571.44812	704.49512	18.46870	-486.84772	-781.38379	-12.21187	647.13605	788.78687	-5.09964	650.38660	-1.15178	649.57349	-961.47931	
6154	61.530	-710.58685	11.95012	-571.44324	704.40155	18.45482	-486.89920	-781.50732	-12.29427	647.16766	788.62952	-5.15126	650.32831	-1.24642	649.63043	-961.56866	
6155	61.540	-710.60901	11.94654	-571.41217	704.35693	18.46278	-486.75830	-781.55591	-12.31325	647.18176	788.60229	-5.10942	650.38715	-1.31767	649.70001	-961.58350	
6156	61.550	-710.66528	11.96997	-571.40063	704.30139	18.45985	-486.71817	-781.64429	-12.36767	647.28430	788.52777	-5.18066	650.37842	-1.36256	649.66931	-961.54083	
6157	61.560	-710.70343	11.98216	-571.36212	704.29010	18.47940	-486.70963	-781.78174	-12.33703	647.21368	788.43427	-5.17735	650.43982	-1.42457	649.70337	-961.48969	
6158	61.570	-710.73828	11.98448	-571.33142	704.20459	18.45861	-486.69464	-781.88556	-12.31620	647.16327	788.34814	-5.14432	650.47107	-1.55955	649.70905	-961.34357	
6159	61.580	-710.75793	11.97540	-571.37366	704.14783	18.50406	-486.71594	-782.03491	-12.31965	647.16736	788.24158	-5.07075	650.43286	-1.68777	649.72449	-961.15125	
6160	61.590	-710.80707	11.99888	-571.33746	704.06757	18.45727	-486.71603	-782.13995	-12.31078	647.16730	788.21777	-5.08452	650.41803	-1.75690	649.73212	-961.06445	
6161	61.600	-710.84039	11.99192	-571.38062	704.07465	18.46557	-486.66568	-782.18225	-12.34981	647.15350	788.14838	-4.99922	650.40900	-1.81490	649.76874	-960.96143	
6162	61.610	-710.82477	11.97665	-571.35315	704.00659	18.45883	-486.70953	-782.24152	-12.28473	647.17505	788.08527	-5.02105	650.43768	-1.85210	649.78229	-960.97253	
6163	61.620	-710.82764	11.96497	-571.35162	704.06189	18.45388	-486.66519	-782.22174	-12.24970	647.09991	788.14368	-4.98056	650.40851	-1.82533	649.72021	-960.96521	
6164	61.630	-710.85779	11.96038	-571.39923	704.03589	18.43139	-486.67932	-782.27386	-12.26570	647.10840	788.07520	-4.90133	650.38849	-1.81250	649.67230	-961.07318	
6165	61.640	-710.87640	11.86169	-571.37799	704.03015	18.43439	-486.65494	-782.23468	-12.13900	647.12427	788.04877	-4.86540	650.35974	-1.77650	649.56073	-961.21283	
6166	61.650	-710.89148	11.86002	-571.38843	703.98694	18.39968	-486.69913	-782.16443	-11.93837	647.17664	788.00269	-4.81940	650.32526	-1.61726	649.43622	-961.21680	
6167	61.660	-710.87445	11.78311	-571.37848	703.99249	18.32750	-486.68463	-782.19855	-11.85126	647.15411	787.93994	-4.75510	650.28436	-1.69522	649.31512	-961.47510	
6168	61.670	-710.91156	11.72754	-571.44946	703.97736	18.26981	-486.74561	-782.16821	-11.83545	647.13770	787.90399	-4.71772	650.26050	-1.69995	649.25085	-961.64282	
6169	61.680	-710.92828	11.62959	-571.45392	703.95575	18.30786	-486.88553	-782.23199	-11.88663	647.07635	787.90552	-4.71843	650.26019	-1.78843	649.11316	-961.83972	
6170	61.690	-710.94867	11.53103	-571.45288	704.00781	18.16853	-486.91827	-782.16724	-11.80073	647.06903	787.89294	-4.49394	650.68176	-1.87697	649.00366	-961.96014	
6171	61.700	-711.01031	11.38553	-571.49921	704.04724	18.00971	-486.80402	-782.11084	-11.65074	647.03241	787.89038	-4.68711	650.28320	-1.80563	648.77277	-962.07562	
6172	61.710	-711.04669	11.28865	-571.56171	703.95856	17.96508	-487.04279	-782.04675	-11.50879	647.02740	787.90607	-4.31090	650.68805	-1.72353	648.50635	-962.20782	
6173	61.720	-711.10052	11.18526	-571.61316	703.90515	17.91615	-487.02954	-781.90112	-11.17964	647.11987	787.83679	-4.23554	650.65839	-1.64410	648.29150	-962.28424	
6174	61.730	-711.13599	11.13859	-571.63965	703.91187	17.82376	-487.06775	-781.95923	-11.04910	647.05035	787.96100	-4.42031	650.23615	-1.55302	648.06055	-962.50330	
